<?xml version="1.0" encoding="utf-8"?>
<!-- Generator: Adobe Illustrator 26.2.1, SVG Export Plug-In . SVG Version: 6.00 Build 0)  -->
<svg version="1.1" id="Layer_1" xmlns="http://www.w3.org/2000/svg" xmlns:xlink="http://www.w3.org/1999/xlink" x="0px" y="0px"
	 viewBox="0 0 1080 1080" style="enable-background:new 0 0 1080 1080;" xml:space="preserve">
<g>
	<g>
		<path d="M104.65,656.44c-25.61,0-38.25-8.43-42.14-11.35l-8.75,7.46H38.52l-19.13-47.65l14.91-6.81
			c7.78,11.35,32.74,39.87,67.75,39.87c21.72,0,37.28-10.37,37.28-23.02c0-21.4-33.07-24.96-63.86-33.06
			c-26.58-7.46-51.22-18.16-51.22-47.65c0-29.5,28.85-47.98,64.19-47.98c16.53,0,30.15,6.81,35.34,9.72l10.05-8.1h11.02l14.26,40.84
			l-14.91,7.13c-12.97-17.83-30.47-31.44-53.16-31.44c-17.83,0-31.44,6.16-31.44,17.5c0,18.16,25.61,22.37,51.87,28.85
			c28.85,6.81,59,16.53,59,50.25C170.45,633.75,139.33,656.44,104.65,656.44z"/>
		<path d="M249.54,655.79c-53.49,0-84.28-32.74-84.28-79.74c0-51.87,33.71-90.44,84.93-90.44c52.19,0,83.96,37.93,83.96,87.85
			C334.15,621.43,295.9,655.79,249.54,655.79z M249.87,501.81c-24.31,0-43.11,18.8-43.11,70.34c0,51.22,18.48,66.78,41.49,66.78
			s42.47-24.64,42.47-68.4C290.71,526.77,274.18,501.81,249.87,501.81z"/>
		<path d="M511.14,649.95h-80.72v-13.62c11.35-3.89,20.75-7.45,20.75-23.66v-74.56c0-18.48-9.72-28.21-26.9-28.21
			c-11.02,0-23.34,6.81-33.07,14.26v89.79c0,16.86,11.67,19.78,20.42,22.04v13.94h-84.61v-14.26c11.02-2.91,24.31-6.81,24.31-23.99
			v-54.14c0-19.13-9.4-23.02-13.94-23.67l-10.05-0.97v-14.26c8.1-2.92,16.53-7.13,24.64-11.35c9.72-5.19,18.48-11.02,24.31-15.56
			h14.91v12.64c15.23-10.7,32.09-17.18,51.22-17.18c32.74,0,48.62,16.86,48.62,48.62v73.59c0,18.48,11.02,23.99,20.1,26.26V649.95z"
			/>
		<path d="M680.35,649.95h-61.59v-7.13c-9.72,6.81-22.37,11.02-38.25,11.02c-42.47,0-78.45-27.56-78.45-78.77
			c0-50.89,29.82-88.17,80.4-88.17c14.59,0,26.58,2.91,36.3,7.78v-31.77c0-19.13-9.4-23.02-14.26-23.67l-9.72-0.97v-14.26
			c7.78-3.24,16.53-7.13,24.64-11.67c9.72-5.19,18.48-10.7,24.31-15.56h15.88v217.84c0,16.86,11.99,19.77,20.75,22.04V649.95z
			 M618.76,518.99c-5.18-9.72-13.62-16.53-26.26-16.53c-31.12,0-46.36,30.8-46.36,70.67c0,39.55,20.42,63.54,40.84,63.54
			c11.99,0,23.67-6.81,31.77-19.45V518.99z"/>
		<path d="M822.99,600.68c-11.99,29.5-29.82,54.78-69.05,54.78c-57.05,0-82.34-42.14-82.34-84.28c0-43.11,28.85-85.58,79.75-85.58
			c48.62,0,70.99,35.01,70.99,60.29c0,4.86-0.32,6.48-3.57,6.48H715.69c-0.32,5.51-0.65,11.02-0.65,17.18
			c0,44.73,16.53,67.1,41.49,67.1c23.34,0,39.55-18.48,48.62-42.79L822.99,600.68z M774.36,537.14c0-9.4-2.91-34.04-24.63-34.04
			c-16.53,0-27.23,10.37-32.09,34.04H774.36z"/>
		<path d="M942.92,523.2c-11.99,0-18.48-6.48-26.9-6.48c-10.05,0-23.99,13.29-31.12,27.55v70.34c0,16.86,13.61,19.77,22.37,22.04
			v13.29h-87.85v-13.62c11.02-2.91,24.31-6.81,24.31-23.99v-54.46c0-19.13-9.4-23.02-13.94-23.67l-10.05-1.3v-14.26
			c8.1-2.92,16.53-7.13,24.64-11.35c9.72-5.19,18.48-11.02,24.31-15.56h16.21v24.64c12.97-14.59,30.47-28.85,51.54-28.85
			c16.21,0,23.67,10.7,23.67,18.48C960.11,515.75,952,523.2,942.92,523.2z"/>
	</g>
	<g>
		<path d="M778.61,375.25l26.63,45.51c0.42,0.64,0.84,1.39,1.42,1.98c1.28,1.27,3.44-0.79,4.55-1.58l1.56,2.9l-14.03,14.05
			l-1.68-2.79c2.41-3.16,3.4-3.73,1.47-7.1l-20.36-34.57c-0.37-0.59-0.74-1.07-1.16-1.49c-2.5-2.49-6.2-2.19-8.6,0.21
			c-2.51,2.51-3.82,7.43,0.27,14.19l3.51,5.84l4.4-4.4l2.63,3.85l-4.56,4.57l13.62,22.39c0.26,0.37,0.47,0.69,0.74,0.96
			c1.49,1.49,2.99,0.2,4.65-1.04l1.84,2.62l-14.25,14.27l-1.51-2.95c1.51-1.72,2.77-4.8,1.2-7.37l-13.26-21.91l-3.06,3.07
			l-2.63-3.85l3.28-3.29l-2.46-4.02c-6.23-10.34-5.6-18.84,0.85-25.3c3.45-3.46,7.55-4.59,9.83-4.1c1.32-2.81,2.08-5.16,2.64-8.17
			L778.61,375.25z"/>
		<path d="M826.59,417.62c-10.78,6.38-17.34,3.63-21.36-3.16c-6.65-11.25-3.2-27.08,9.54-34.61c8.34-4.93,16.82-3.75,21.75,4.59
			C841.6,393.03,839.8,409.8,826.59,417.62z M816.48,384.59c-7.39,4.37-6.38,17.83-0.99,26.94c2.14,3.62,5.46,4.28,8.98,2.19
			c8.75-5.17,6.32-19.18,1.96-26.55C824.47,383.88,820.68,382.11,816.48,384.59z"/>
		<path d="M864.13,371.24c-3.14,1.03-4.55-0.48-8.07,0.67c-3.52,1.15-4.49,4-4.11,10.2l0.82,14.12c0.1,1.07,0.11,1.86,0.3,2.43
			c0.42,1.28,1.56,1.23,4.87,0.69l0.18,3.34l-18.93,6.21l-0.23-3.24c3.58-1.73,4.72-1.79,4.45-5.65l-1-17.69
			c-0.11-0.6-0.13-1.14-0.31-1.71c-0.66-2-2.32-1.77-3.97-1.23c-0.3,0.1-0.6,0.2-0.9,0.29l-0.21-3.17c1.88-1.09,3.74-2.49,5.5-3.94
			c2.02-1.69,3.89-3.57,5.21-5.35l3.44-1.13l0.15,3.74c1.92-3,5.09-6.97,9.51-8.42c3.52-1.15,6.03,0.71,6.83,3.13
			C868.48,367.05,867.5,370.14,864.13,371.24z"/>
		<path d="M884.63,359.8l-3.08,30.14c-0.04,0.77-0.22,1.63-0.09,2.45c0.28,1.78,3.25,1.39,4.68,1.39l-0.44,3.26l-19.61,3.08
			l0.29-3.24c3.81-1.13,4.96-0.93,5.3-4.86l1.78-17.62c0.06-0.62,0.06-1.15-0.03-1.74c-0.39-2.45-2.64-2.09-4.58-1.71l0.3-3.17
			c1.95-0.76,4.09-1.86,6.07-3.01c2.26-1.34,4.33-2.89,6-4.44L884.63,359.8z M880.79,352.58c-3.66,0.57-7.05-1.25-7.5-4.07
			c-0.44-2.82,2.23-5.6,5.89-6.17c3.74-0.59,7.05,1.25,7.5,4.07C887.12,349.23,884.52,351.99,880.79,352.58z"/>
		<path d="M921.26,370.39l-3.16,0.31c-1.74-3.49-5.21-7.54-12.46-7.68c-3.78-0.07-6.49,1.83-6.55,4.61
			c-0.07,3.6,5.51,4.54,10.91,6.37c5.24,1.83,10.31,4.48,10.18,11.47c-0.15,7.88-6.55,12.64-17.26,12.44
			c-6.38-0.12-11.92-2.63-13.09-3.26l-1.37,1.48l-3.15-0.06l-0.88-11.59l3.63-0.61c1.14,2.28,4.79,9.18,14.16,9.36
			c5.12,0.1,7.83-1.95,7.89-4.88c0.08-4.28-5.88-5.37-11.44-7.36c-4.85-1.67-9.45-4.09-9.34-9.95c0.13-7.06,7.48-12.18,16.93-11.99
			c5.35,0.1,8.16,1.59,9.65,2.06l1.36-1.1l2.68,0.05L921.26,370.39z"/>
		<path d="M951.49,367.31l-2.18,4.3l-8.64-1.79l-10.75,20.78c-0.4,0.76-0.63,1.48-0.76,2.14c-0.46,2.21,0.68,3.29,2.3,3.62
			c2.08,0.43,4.18-0.74,4.18-0.74l0.93,1.73c-2.42,1.95-6.74,4.2-11.37,3.24c-4.71-0.98-7.24-3.49-6.34-7.83
			c0.2-0.96,0.58-2.03,1.13-3.14l11.19-22.15l-4.55-0.94l1.84-3.84c2.79,0.12,6.32-0.99,9.52-2.86c2.83-1.64,5.39-3.87,7.28-6.39
			l3.16,0.66l-4.02,8.14c-0.29,0.63-0.55,1.11-0.66,1.63c-0.23,1.1,0.25,1.89,1.79,2.21L951.49,367.31z"/>
		<path d="M992.93,403.46c-2.78-1.64-3.66-4.33-2.9-6.41c0.7-2.12,1.43-4.3-0.94-5.7c-7.06-4.15-18.29,4.06-21.6,9.69
			c-2.51,4.27-2.52,8.63,2.3,11.46c4,2.36,10.86,2.2,15.05,0.66l2.15,3.96c-6.56,3.55-15.6,2.59-22.25-1.32
			c-8.15-4.79-11.77-12.15-7.2-19.92c6.28-10.68,23.14-15.41,36.17-7.74c7.67,4.51,9.29,10,7.12,13.69
			C999.3,404.43,995.64,405.06,992.93,403.46z"/>
		<path d="M990.33,435.51c-8.86-8.85-7.83-15.9-2.25-21.48c9.24-9.24,25.43-9.84,35.9,0.63c6.85,6.85,7.82,15.36,0.97,22.21
			C1017.88,443.93,1001.2,446.37,990.33,435.51z M1019.81,417.49c-6.07-6.07-18.86-1.75-26.34,5.74c-2.97,2.98-2.78,6.35,0.11,9.25
			c7.19,7.18,20.15,1.35,26.2-4.71C1022.49,425.06,1023.26,420.95,1019.81,417.49z"/>
		<path d="M1055.94,491.82l-18.7,3.74c-0.75,0.18-1.59,0.33-2.34,0.69c-1.62,0.78-0.47,3.37-0.05,4.75l-3.22,0.58l-6.55-13.63
			l25.62-4.79c0.78-0.11,1.49-0.37,2.03-0.63c2.64-1.27,2.87-3.74,1.54-6.51c-0.65-1.35-3.13-3.91-5.61-5.61
			c-0.75,0.36-1.63,0.61-2.61,0.82l-18.7,3.74c-0.85,0.14-1.59,0.33-2.34,0.69c-1.62,0.78-0.4,3.51-0.02,4.82l-3.22,0.58
			l-8.59-17.89l3.19-0.66c2.18,3.32,2.32,4.48,6.18,3.67l18.26-3.62c0.75-0.18,1.49-0.37,2.03-0.63c2.64-1.27,3.08-3.14,2.16-5.05
			c-1.84-3.83-4.69-5.61-6.8-6.7l-20.74,4.19c-0.81,0.22-1.63,0.26-2.37,0.62c-1.63,0.78-0.4,3.51,0.01,4.89l-3.25,0.51l-8.59-17.89
			l3.18-0.66c2.18,3.32,2.39,4.45,6.18,3.67l18.16-3.48c0.61-0.12,1.12-0.27,1.66-0.53c2.23-1.07,1.24-3.13,0.33-4.88l3.12-0.62
			c1.29,1.65,2.96,3.38,4.62,4.94c1.94,1.78,4.01,3.32,5.98,4.47l1.5,3.12l-4,0.7c1.77,1.25,5.63,2.89,8.23,8.28
			c1.71,3.55,1.89,7.4,0.03,10.12c2.68,1.59,7.64,5.85,9.9,10.54c2.35,4.9,1.86,10.29-3.22,12.73
			C1058.1,491.3,1057.09,491.62,1055.94,491.82z"/>
		<path d="M1030.06,518.23c-0.47-3.83-0.15-6.81,0.43-8.86l-7.77-1.03c-0.84-0.06-1.7-0.27-2.44-0.18c-1.79,0.22-1.5,3.2-1.55,4.63
			l-3.25-0.56l-2.41-19.7l3.23,0.4c0.93,3.86,0.76,4.99,4.68,5.46l32.39,4.37c0.62,0.08,1.15,0.1,1.74,0.02
			c2.09-0.26,2.19-1.93,1.98-3.58c-0.05-0.39-0.09-0.7-0.12-1.02l3.16,0.49c0.7,1.98,1.71,4.08,2.79,6.09
			c1.27,2.31,2.75,4.51,4.23,6.15l0.43,3.52l-2.31-0.35c2.11,3,4.14,7.27,4.7,11.81c1.01,8.29-4.99,12.43-10.95,13.16
			C1046.49,540.59,1031.58,530.75,1030.06,518.23z M1063.34,521.23c-0.35-2.89-1.98-5.63-4.54-8.02l-19.54-2.61
			c-0.54-0.09-1.07-0.11-1.52-0.05c-2.76,0.34-3.4,3.11-2.93,6.95c1.02,8.37,15.77,12.04,23.16,11.14
			C1062.07,528.13,1063.88,525.61,1063.34,521.23z"/>
		<path d="M1038.91,568.53c-5.72-2.24-6.36,1.41-5.4,3.58l-4.04-1.65c-0.95-2.25-1.22-5.21-0.92-7.79c0.56-4.85,2.79-5.86,3.94-6.05
			c-0.61-1.26-2.6-5.05-1.88-11.31c0.82-7.2,4.14-11.73,9.96-11.07c9.78,1.12,12.1,10.58,13.52,25.88l0.4,4.41l2.68,1.02
			c3.91,1.56,5.89,0.04,6.2-2.62c0.27-2.35-1.11-4.17-2.72-5.94c-2.07-2.38-4.54-4.56-4.19-7.69c0.33-2.9,1.81-3.92,3.6-3.71
			c4.4,0.5,8.53,8.67,7.47,17.98c-1.07,9.31-5.39,14.05-11.47,11.69L1038.91,568.53z M1049.2,562.5l-0.19-1.69
			c-1.12-9.4-2.72-15.85-7.42-16.39c-3.06-0.35-5.3,1.38-5.78,5.6c-0.6,5.24,2.11,8.01,8.04,10.35L1049.2,562.5z"/>
		<path d="M1039.07,616.98l-15.63-11.04c-0.62-0.48-1.32-0.99-2.09-1.27c-1.69-0.62-2.77,2.09-3.44,3.26l-2.69-1.83l5.14-13.97
			l21.25,15.12c0.65,0.41,1.3,0.82,1.86,1.02c2.75,1.01,4.74-0.69,5.8-3.57c0.6-1.63,0.62-6.24-0.11-9.27l-17.45-11.96
			c-0.72-0.43-1.32-0.99-2.09-1.27c-1.69-0.62-2.8,2.16-3.5,3.41l-2.63-1.98l6.86-18.62l2.69,1.83c-0.87,3.88-1.53,4.81,1.67,6.99
			l15.14,10.61c0.51,0.36,0.98,0.61,1.54,0.82c2.33,0.86,3.12-1.29,3.73-3.16l2.62,1.8c-0.29,2.08-0.37,4.48-0.33,6.76
			c0.07,2.63,0.41,5.19,0.96,7.4l-1.2,3.25l-3.29-2.38c0.62,2.66,1.23,7.75-0.68,12.93c-1.91,5.17-6.09,8.5-11.38,6.55
			C1040.97,618.11,1040.04,617.6,1039.07,616.98z"/>
		<path d="M1023.19,660.02l-2.07-2.47c1.27-2.65,1.49-3.26-0.49-7.65l-16.39-36.11c-2.75-6.11-3.48-12.69-0.09-17.91
			c2.7-4.16,6.39-5.43,9.29-3.54c2.2,1.43,2.76,4.43,1.35,6.61c-2.06,3.17-6.18,0.96-7.51,3.01c-1.67,2.58,1.47,11.1,3.86,12.66
			c0.69,0.45,1.58,0.74,2.06,0.96l23.46,9.24c4,1.57,5.43,0.05,6.65-1.41l2.24,2.21l-10.86,16.71l-2.09-2.58
			c0.78-2.03,1.61-4.4-1.99-5.9l-14.56-5.99l7.45,15.83c2.19,4.62,4.9,2.25,5.99,0.98l2.11,2.41L1023.19,660.02z"/>
	</g>
</g>
</svg>
