<?xml version="1.0" encoding="utf-8"?>
<!-- Generator: Adobe Illustrator 26.2.1, SVG Export Plug-In . SVG Version: 6.00 Build 0)  -->
<svg version="1.1" id="Layer_1" xmlns="http://www.w3.org/2000/svg" xmlns:xlink="http://www.w3.org/1999/xlink" x="0px" y="0px"
	 viewBox="0 0 1080 1080" style="enable-background:new 0 0 1080 1080;" xml:space="preserve">
<g>
	<path d="M308.04,1015c10.66,7.68,5.12,24.52-8.02,24.52H49.85c-37.77,0-61.79-40.5-43.71-73.68l115.25-211.43
		c6.2-11.37,23.07-8.42,25.32,4.32C165.24,863.91,224.69,954.98,308.04,1015z"/>
	<path d="M583.71,66.45l124.67,228.71c6.13,11.24-5.22,23.73-17.12,19c-45.93-18.25-96.05-28.27-148.45-28.27
		c-55.07,0-107.6,11.07-155.43,31.09c-11.96,5.01-23.6-7.57-17.39-18.95L496.21,66.45C515.09,31.82,564.83,31.82,583.71,66.45z"/>
	<path d="M1030.07,1039.52H785.53c-13.16,0-18.66-16.85-7.98-24.54c81.37-58.59,139.97-146.86,159.93-248.94
		c2.46-12.57,19.14-15.3,25.27-4.06l111.12,203.85C1091.94,999.02,1067.92,1039.52,1030.07,1039.52z"/>
</g>
</svg>
